<svg xmlns="http://www.w3.org/2000/svg" viewBox="0 0 400 300" width="400" height="300">
  <!-- 背景 -->
  <rect width="400" height="300" fill="#f8f9fa"/>
  
  <!-- 房子 -->
  <polygon points="200,80 120,140 280,140" fill="#dc3545" stroke="#b02a37" stroke-width="2"/>
  <rect x="140" y="140" width="120" height="100" fill="#ffc107" stroke="#e0a800" stroke-width="2"/>
  
  <!-- 门 -->
  <rect x="180" y="190" width="40" height="50" fill="#6f4e37" stroke="#5d4037" stroke-width="1"/>
  <circle cx="210" cy="215" r="2" fill="#ffd700"/>
  
  <!-- 窗户 -->
  <rect x="150" y="160" width="25" height="20" fill="#87ceeb" stroke="#4682b4" stroke-width="1"/>
  <rect x="225" y="160" width="25" height="20" fill="#87ceeb" stroke="#4682b4" stroke-width="1"/>
  <line x1="162.5" y1="160" x2="162.5" y2="180" stroke="#4682b4" stroke-width="1"/>
  <line x1="150" y1="170" x2="175" y2="170" stroke="#4682b4" stroke-width="1"/>
  <line x1="237.5" y1="160" x2="237.5" y2="180" stroke="#4682b4" stroke-width="1"/>
  <line x1="225" y1="170" x2="250" y2="170" stroke="#4682b4" stroke-width="1"/>
  
  <!-- 烟囱 -->
  <rect x="240" y="90" width="15" height="30" fill="#8b4513" stroke="#654321" stroke-width="1"/>
  
  <!-- 烟 -->
  <circle cx="250" cy="85" r="3" fill="#d3d3d3" opacity="0.7"/>
  <circle cx="245" cy="80" r="2" fill="#d3d3d3" opacity="0.6"/>
  <circle cx="252" cy="78" r="2.5" fill="#d3d3d3" opacity="0.5"/>
  
  <!-- 家庭成员 -->
  <!-- 爸爸 -->
  <circle cx="160" cy="260" r="12" fill="#fdbcb4"/>
  <rect x="150" y="270" width="20" height="25" fill="#007bff" rx="2"/>
  <rect x="145" y="275" width="8" height="15" fill="#fdbcb4"/>
  <rect x="167" y="275" width="8" height="15" fill="#fdbcb4"/>
  <rect x="155" y="295" width="5" height="8" fill="#333"/>
  <rect x="160" y="295" width="5" height="8" fill="#333"/>
  
  <!-- 妈妈 -->
  <circle cx="200" cy="260" r="12" fill="#fdbcb4"/>
  <rect x="190" y="270" width="20" height="25" fill="#e91e63" rx="2"/>
  <rect x="185" y="275" width="8" height="15" fill="#fdbcb4"/>
  <rect x="207" y="275" width="8" height="15" fill="#fdbcb4"/>
  <rect x="195" y="295" width="5" height="8" fill="#333"/>
  <rect x="200" y="295" width="5" height="8" fill="#333"/>
  
  <!-- 孩子1 -->
  <circle cx="230" cy="265" r="8" fill="#fdbcb4"/>
  <rect x="223" y="272" width="14" height="18" fill="#28a745" rx="2"/>
  <rect x="220" y="276" width="6" height="12" fill="#fdbcb4"/>
  <rect x="234" y="276" width="6" height="12" fill="#fdbcb4"/>
  <rect x="226" y="290" width="3" height="6" fill="#333"/>
  <rect x="231" y="290" width="3" height="6" fill="#333"/>
  
  <!-- 孩子2 -->
  <circle cx="260" cy="265" r="8" fill="#fdbcb4"/>
  <rect x="253" y="272" width="14" height="18" fill="#fd7e14" rx="2"/>
  <rect x="250" y="276" width="6" height="12" fill="#fdbcb4"/>
  <rect x="264" y="276" width="6" height="12" fill="#fdbcb4"/>
  <rect x="256" y="290" width="3" height="6" fill="#333"/>
  <rect x="261" y="290" width="3" height="6" fill="#333"/>
  
  <!-- 太阳 -->
  <circle cx="350" cy="50" r="20" fill="#ffd700" stroke="#ffed4e" stroke-width="2"/>
  <g stroke="#ffd700" stroke-width="2">
    <line x1="350" y1="15" x2="350" y2="25"/>
    <line x1="350" y1="75" x2="350" y2="85"/>
    <line x1="315" y1="50" x2="325" y2="50"/>
    <line x1="375" y1="50" x2="385" y2="50"/>
    <line x1="325" y1="25" x2="332" y2="32"/>
    <line x1="368" y1="68" x2="375" y2="75"/>
    <line x1="375" y1="25" x2="368" y2="32"/>
    <line x1="332" y1="68" x2="325" y2="75"/>
  </g>
  
  <!-- 云朵 -->
  <g fill="white" stroke="#e6e6e6" stroke-width="1">
    <circle cx="80" cy="60" r="12"/>
    <circle cx="95" cy="55" r="15"/>
    <circle cx="110" cy="60" r="12"/>
    <circle cx="100" cy="70" r="8"/>
  </g>
  
  <!-- 草地 -->
  <rect x="0" y="240" width="400" height="60" fill="#90EE90"/>
  
  <!-- 小草 -->
  <g stroke="#228B22" stroke-width="2" fill="none">
    <path d="M50,240 Q52,235 54,240"/>
    <path d="M70,240 Q72,235 74,240"/>
    <path d="M90,240 Q92,235 94,240"/>
    <path d="M310,240 Q312,235 314,240"/>
    <path d="M330,240 Q332,235 334,240"/>
    <path d="M350,240 Q352,235 354,240"/>
  </g>
  
  <!-- 标题文字 -->
  <text x="200" y="30" text-anchor="middle" font-family="Arial, sans-serif" font-size="24" font-weight="bold" fill="#333">
    家庭信息储存平台
  </text>
</svg>